<svg id="svg" version="1.1" xmlns="http://www.w3.org/2000/svg" xmlns:xlink="http://www.w3.org/1999/xlink" width="400" height="77.77777777777777" viewBox="0, 0, 400,77.77777777777777"><g id="svgg"><path id="path0" d="M46.917 3.677 C 46.642 3.853,46.248 4.084,46.042 4.192 C 45.835 4.299,45.667 4.450,45.667 4.527 C 45.667 4.604,45.586 4.667,45.488 4.667 C 44.489 4.667,38.949 10.425,37.872 12.583 C 36.561 15.210,36.101 18.046,36.089 23.583 C 36.081 27.322,36.026 28.549,35.845 29.000 C 34.995 31.122,32.927 30.208,32.261 27.417 C 32.088 26.690,30.712 23.893,30.136 23.098 C 28.967 21.483,27.818 20.524,28.074 21.375 C 29.797 27.114,28.969 36.846,26.294 42.304 C 24.819 45.313,22.093 44.605,22.921 41.428 C 23.060 40.891,23.134 40.412,23.084 40.362 C 22.951 40.228,21.714 41.470,21.121 42.333 C 20.837 42.746,20.557 43.121,20.498 43.167 C 20.053 43.514,18.248 46.717,17.822 47.917 C 16.601 51.353,16.931 57.248,18.444 59.035 C 19.800 60.636,20.000 60.985,20.000 61.748 C 20.000 62.934,18.848 63.355,17.493 62.663 C 17.020 62.422,16.833 62.387,16.833 62.541 C 16.833 62.753,17.900 64.430,18.240 64.751 C 18.915 65.390,20.317 66.448,21.667 67.339 C 22.537 67.913,23.287 68.433,23.333 68.493 C 23.625 68.874,27.245 70.726,28.583 71.178 C 28.950 71.302,29.325 71.449,29.417 71.505 C 29.508 71.561,29.921 71.704,30.333 71.823 C 30.746 71.941,31.271 72.096,31.500 72.167 C 31.729 72.237,32.217 72.373,32.583 72.469 C 32.950 72.565,33.775 72.792,34.417 72.973 C 39.210 74.331,48.938 74.443,52.797 73.185 C 53.744 72.877,54.130 72.724,55.500 72.114 C 55.729 72.012,56.104 71.806,56.333 71.656 C 56.563 71.507,57.163 71.159,57.667 70.883 C 59.569 69.844,60.695 69.150,61.000 68.829 C 61.046 68.781,61.421 68.483,61.833 68.167 C 64.014 66.497,65.367 63.968,66.084 60.217 C 66.418 58.475,66.408 58.167,66.018 58.167 C 65.844 58.167,65.660 58.276,65.609 58.409 C 65.452 58.819,64.200 59.357,63.533 59.301 C 62.304 59.198,62.393 58.616,64.294 54.333 C 66.220 49.994,66.292 41.470,64.426 38.650 C 63.799 37.704,63.678 37.831,63.691 39.421 C 63.714 42.111,62.222 43.277,60.727 41.738 C 60.093 41.085,58.557 38.012,57.401 35.083 C 57.147 34.442,56.893 33.879,56.836 33.833 C 56.727 33.746,56.000 32.230,56.000 32.090 C 56.000 32.046,55.826 31.614,55.613 31.130 C 55.399 30.646,55.088 29.931,54.921 29.542 C 54.753 29.152,54.571 28.833,54.516 28.833 C 54.461 28.833,54.232 28.477,54.007 28.042 C 53.419 26.903,52.348 25.333,52.160 25.333 C 52.072 25.333,52.000 25.714,52.000 26.179 C 52.000 27.434,51.389 27.816,50.216 27.292 C 48.435 26.497,47.000 22.932,47.000 19.303 C 47.000 17.722,46.909 17.557,46.466 18.334 C 45.814 19.480,44.681 19.400,44.056 18.166 C 42.485 15.061,43.946 7.805,46.763 4.728 C 48.013 3.363,48.076 2.937,46.917 3.677 M41.767 22.346 C 41.295 25.297,43.658 29.798,45.029 28.558 C 45.318 28.296,45.333 28.309,45.333 28.831 C 45.333 30.487,47.088 34.442,48.292 35.502 C 49.417 36.492,50.787 36.322,51.593 35.091 C 51.746 34.858,51.939 34.667,52.021 34.667 C 52.187 34.667,53.232 36.731,53.382 37.355 C 53.434 37.572,53.559 38.050,53.660 38.417 C 53.761 38.783,53.916 39.496,54.003 40.000 C 54.091 40.504,54.241 41.254,54.336 41.667 C 54.568 42.675,54.835 44.250,54.928 45.167 C 54.970 45.579,55.076 46.442,55.163 47.083 C 55.251 47.725,55.409 49.000,55.514 49.917 C 55.724 51.751,55.875 52.000,56.776 52.000 C 57.418 52.000,58.315 51.291,58.725 50.460 L 58.992 49.917 58.993 50.750 C 58.993 51.208,58.882 52.258,58.747 53.083 C 58.612 53.908,58.420 55.108,58.320 55.750 C 58.220 56.392,58.116 56.939,58.090 56.965 C 58.021 57.035,57.333 55.846,57.333 55.657 C 57.333 55.571,57.258 55.500,57.167 55.500 C 57.075 55.500,57.000 55.395,57.000 55.267 C 57.000 55.138,56.719 54.751,56.375 54.407 L 55.750 53.780 55.697 54.512 C 55.511 57.067,52.965 55.464,52.017 52.196 C 51.465 50.291,50.921 46.251,50.918 44.042 C 50.917 43.074,50.850 42.356,50.763 42.385 C 50.583 42.444,49.711 44.086,49.285 45.167 C 48.221 47.864,47.002 48.356,46.999 46.088 C 46.999 45.719,46.932 45.154,46.851 44.833 C 46.769 44.512,46.614 43.350,46.506 42.250 C 46.397 41.150,46.239 40.120,46.154 39.961 C 46.069 39.801,46.000 39.597,46.000 39.506 C 46.000 39.416,45.775 38.850,45.500 38.250 C 45.225 37.650,45.000 37.113,45.000 37.059 C 45.000 36.613,42.597 33.807,41.667 33.167 C 41.346 32.947,41.046 32.721,41.000 32.667 C 40.954 32.612,40.665 32.391,40.357 32.176 C 39.826 31.805,39.802 31.745,39.895 31.017 C 39.948 30.595,40.001 29.074,40.012 27.636 C 40.032 24.942,40.132 24.385,40.857 22.943 C 41.197 22.267,41.639 21.667,41.797 21.667 C 41.840 21.667,41.827 21.972,41.767 22.346 M40.362 34.208 C 41.585 36.065,42.099 37.950,41.815 39.536 C 41.517 41.203,40.775 41.793,40.008 40.970 C 39.528 40.455,39.453 40.628,39.314 42.545 C 39.195 44.187,39.141 44.450,38.685 45.609 C 38.272 46.660,36.971 46.856,36.732 45.905 C 36.382 44.510,34.838 47.572,33.449 52.417 C 32.525 55.640,32.203 56.126,31.100 55.966 C 30.685 55.905,30.000 54.926,30.000 54.392 C 30.000 53.990,29.505 53.811,29.494 54.208 C 29.491 54.323,29.380 55.017,29.247 55.750 C 28.975 57.259,28.928 59.214,29.147 59.933 C 29.228 60.199,29.392 60.754,29.511 61.167 C 29.789 62.132,30.487 63.544,31.331 64.850 C 32.088 66.022,32.113 66.127,31.708 66.435 C 31.182 66.834,30.407 66.715,29.839 66.146 C 29.553 65.860,29.277 65.668,29.226 65.719 C 29.097 65.848,29.110 66.940,29.243 67.156 C 29.416 67.435,29.185 67.364,28.823 67.027 C 28.642 66.858,28.010 66.436,27.417 66.090 C 25.729 65.103,24.256 63.687,25.687 64.427 C 26.737 64.970,28.000 64.380,28.000 63.346 C 28.000 62.740,26.553 59.603,25.707 58.375 C 24.650 56.841,24.264 55.644,24.268 53.917 C 24.273 51.661,25.140 48.909,26.018 48.361 C 26.324 48.170,26.338 48.180,26.177 48.481 C 25.366 49.996,27.232 51.355,28.693 50.314 C 30.172 49.261,31.425 47.246,32.255 44.583 C 33.447 40.764,33.555 40.224,33.655 37.588 L 33.750 35.093 34.500 35.868 C 34.912 36.294,35.550 37.229,35.917 37.946 C 37.398 40.844,39.051 40.249,39.429 36.681 C 39.493 36.077,39.566 35.471,39.593 35.333 C 39.619 35.196,39.647 34.690,39.654 34.208 C 39.661 33.727,39.694 33.333,39.726 33.333 C 39.759 33.333,40.045 33.727,40.362 34.208 M43.549 43.375 C 44.163 44.693,44.309 45.401,44.402 47.500 L 44.487 49.417 43.702 50.170 C 41.939 51.861,41.740 52.338,41.511 55.418 C 41.277 58.574,41.060 58.859,40.440 56.827 C 40.159 55.908,39.503 55.000,39.118 55.000 C 38.969 54.999,38.931 55.525,38.972 57.041 C 39.060 60.320,38.560 62.509,37.695 62.637 C 37.381 62.683,37.333 62.611,37.333 62.095 C 37.333 61.706,37.255 61.500,37.108 61.500 C 36.815 61.500,35.430 64.327,35.169 65.458 C 34.981 66.270,34.667 66.520,34.667 65.857 C 34.667 65.697,34.607 65.495,34.534 65.408 C 34.117 64.910,33.273 60.867,33.508 60.488 C 33.590 60.355,33.668 60.408,33.744 60.649 C 34.314 62.443,35.667 61.384,35.667 59.145 C 35.667 57.059,36.752 50.837,37.174 50.500 C 37.231 50.454,37.353 50.280,37.445 50.112 C 37.585 49.856,37.611 49.892,37.611 50.335 C 37.611 51.362,38.881 51.516,39.751 50.594 C 40.295 50.017,40.456 49.461,40.753 47.127 L 40.853 46.338 41.234 46.780 C 42.043 47.721,42.944 46.139,43.030 43.625 C 43.076 42.277,43.045 42.292,43.549 43.375 M48.549 51.246 C 48.231 52.364,48.555 53.582,49.861 56.167 C 51.581 59.573,53.291 60.933,53.757 59.264 L 53.939 58.612 54.510 59.764 C 55.569 61.901,55.322 64.314,53.755 67.167 C 53.132 68.299,53.184 68.667,53.967 68.667 C 54.315 68.667,54.690 68.577,54.800 68.467 C 55.119 68.147,55.032 68.455,54.625 69.083 C 54.353 69.503,53.862 69.852,52.833 70.354 C 50.164 71.659,49.826 71.727,50.750 70.776 C 51.248 70.264,51.545 69.763,51.732 69.120 C 52.146 67.698,52.044 67.095,51.500 67.750 C 50.830 68.557,50.698 67.933,51.278 66.698 C 51.995 65.171,51.908 60.833,51.161 60.833 C 51.072 60.833,51.000 61.006,51.000 61.218 C 51.000 62.602,50.299 62.343,49.554 60.685 C 48.047 57.330,47.000 55.751,47.000 56.833 C 47.000 57.915,46.124 56.860,45.823 55.417 C 45.587 54.281,45.251 53.761,45.007 54.156 C 44.446 55.064,44.043 52.230,44.558 51.003 L 44.784 50.467 44.890 51.371 C 45.150 53.582,46.585 54.517,47.136 52.833 C 47.417 51.973,48.487 50.333,48.767 50.333 C 48.790 50.333,48.692 50.744,48.549 51.246 M43.927 57.511 C 44.087 57.688,44.306 57.833,44.413 57.833 C 44.520 57.833,44.769 58.190,44.967 58.625 C 45.519 59.838,46.065 60.400,46.477 60.179 C 46.661 60.080,46.888 60.000,46.983 60.000 C 47.266 60.000,48.000 63.069,48.000 64.255 C 48.000 65.447,48.730 66.066,49.168 65.247 C 49.534 64.564,49.701 65.023,49.602 66.438 C 49.395 69.392,49.384 69.220,49.801 69.430 C 50.183 69.622,50.180 69.628,49.369 70.448 C 47.045 72.796,42.085 72.882,38.975 70.629 C 38.304 70.143,38.285 70.108,38.633 69.980 C 39.168 69.782,39.098 69.265,38.333 67.771 C 37.599 66.334,37.581 66.241,37.860 65.309 C 38.047 64.687,38.065 64.674,38.372 64.951 C 39.241 65.738,41.325 62.030,40.915 60.427 C 40.830 60.096,40.834 60.095,41.038 60.402 C 42.446 62.525,42.944 62.030,42.980 58.472 C 43.004 56.174,43.118 55.685,43.425 56.578 C 43.540 56.914,43.766 57.334,43.927 57.511 M35.940 68.917 C 35.911 69.008,35.744 69.094,35.569 69.107 C 35.393 69.120,35.178 69.139,35.090 69.149 C 35.002 69.159,35.265 69.523,35.674 69.958 C 36.082 70.393,36.308 70.656,36.175 70.541 C 36.042 70.427,35.827 70.333,35.696 70.333 C 35.409 70.333,33.333 68.875,33.333 68.674 C 33.333 68.595,33.577 68.605,33.875 68.696 C 34.546 68.899,35.332 68.640,35.337 68.212 C 35.340 67.969,35.399 67.991,35.666 68.333 C 35.846 68.563,35.969 68.825,35.940 68.917 " stroke="none" fill="#b35c04" fill-rule="evenodd"></path><path id="path1" d="M364.366 1.861 C 364.203 2.029,363.601 2.074,361.908 2.044 C 359.172 1.995,358.120 2.227,355.599 3.435 C 355.333 3.562,355.013 3.667,354.889 3.667 C 354.764 3.667,354.532 3.740,354.373 3.831 C 354.214 3.921,353.558 4.228,352.917 4.513 C 350.179 5.731,349.722 6.011,348.642 7.128 C 347.876 7.921,347.151 8.464,346.169 8.981 C 344.908 9.643,344.019 10.359,344.005 10.721 C 344.002 10.797,343.716 11.135,343.369 11.471 C 342.746 12.077,342.009 13.198,341.486 14.339 C 341.337 14.662,341.111 15.040,340.983 15.178 C 340.741 15.440,340.624 15.636,340.047 16.750 C 339.266 18.260,338.677 21.136,338.666 23.500 C 338.662 24.279,338.589 25.816,338.504 26.916 C 338.402 28.230,338.407 29.173,338.518 29.666 C 339.037 31.968,339.144 32.360,339.517 33.292 C 339.599 33.498,339.734 33.835,339.816 34.042 C 340.023 34.558,340.445 35.544,340.781 36.292 C 341.073 36.942,341.917 38.263,342.273 38.626 C 342.386 38.741,342.520 38.966,342.571 39.126 C 343.061 40.668,348.260 44.565,350.833 45.319 C 351.246 45.440,351.801 45.605,352.067 45.686 C 352.332 45.767,352.820 45.836,353.150 45.839 C 353.480 45.842,354.162 45.989,354.667 46.167 C 355.845 46.581,361.303 46.623,363.917 46.238 C 364.833 46.103,366.422 45.885,367.447 45.753 C 371.253 45.265,374.167 43.550,374.167 41.800 C 374.167 41.033,374.343 41.043,372.083 41.681 C 370.577 42.106,365.275 42.335,364.167 42.023 C 363.846 41.932,363.145 41.764,362.609 41.649 C 362.073 41.533,361.468 41.308,361.265 41.149 C 361.062 40.989,360.038 40.414,358.990 39.872 C 355.397 38.014,354.881 37.651,354.313 36.580 C 354.095 36.169,353.870 35.833,353.812 35.833 C 353.754 35.833,353.614 35.608,353.500 35.333 C 353.386 35.058,353.232 34.833,353.158 34.833 C 353.083 34.833,352.975 34.684,352.917 34.501 C 352.859 34.318,352.720 34.074,352.609 33.959 C 352.421 33.765,352.043 33.158,351.335 31.914 C 350.992 31.311,350.406 29.634,350.269 28.863 C 350.183 28.383,349.315 26.333,348.828 25.461 C 348.161 24.265,349.281 23.448,352.500 22.783 C 353.496 22.577,358.487 22.551,359.610 22.745 C 360.127 22.835,360.554 22.777,361.288 22.516 C 362.237 22.179,362.569 22.167,370.545 22.167 C 376.283 22.167,378.960 22.109,379.284 21.979 C 380.544 21.472,380.913 21.230,381.787 20.333 C 382.529 19.571,382.674 17.807,382.160 15.792 C 381.387 12.768,380.599 11.381,378.167 8.765 C 376.015 6.450,375.189 5.671,374.167 4.994 C 373.571 4.598,373.046 4.224,373.000 4.162 C 372.954 4.101,372.742 3.958,372.528 3.845 C 372.315 3.733,371.998 3.519,371.824 3.370 C 371.452 3.051,369.966 2.551,368.667 2.306 C 365.127 1.639,364.633 1.588,364.366 1.861 M149.250 2.021 C 147.636 2.149,145.802 2.574,144.333 3.161 C 143.193 3.616,141.102 4.698,141.028 4.871 C 140.997 4.942,140.897 5.000,140.805 5.000 C 140.662 5.000,139.244 5.918,139.000 6.169 C 138.954 6.216,138.504 6.591,138.001 7.002 C 136.865 7.930,135.009 9.788,134.385 10.623 C 134.127 10.968,133.748 11.437,133.542 11.665 C 133.335 11.893,133.167 12.132,133.167 12.195 C 133.167 12.258,133.054 12.422,132.916 12.560 C 132.570 12.907,131.167 15.224,130.631 16.333 C 129.939 17.768,129.535 18.842,128.843 21.083 C 128.475 22.276,128.277 24.782,128.473 25.760 C 128.580 26.289,128.667 27.194,128.667 27.770 C 128.667 28.988,128.983 30.349,129.601 31.792 C 129.729 32.090,129.953 32.615,130.099 32.958 C 130.647 34.246,131.409 35.757,131.617 35.970 C 131.736 36.091,131.833 36.255,131.833 36.333 C 131.833 36.412,131.927 36.575,132.042 36.696 C 132.156 36.818,132.446 37.179,132.685 37.500 C 133.696 38.855,139.543 44.500,139.936 44.500 C 140.057 44.500,140.404 44.639,140.706 44.809 C 141.299 45.142,142.745 45.660,144.083 46.019 C 145.549 46.412,152.295 46.321,153.750 45.888 C 154.392 45.697,155.554 45.375,156.333 45.173 C 157.823 44.786,159.333 44.191,159.333 43.992 C 159.333 43.927,159.558 43.781,159.833 43.667 C 160.108 43.553,160.333 43.399,160.333 43.324 C 160.333 43.250,160.483 43.142,160.666 43.084 C 160.848 43.026,161.092 42.888,161.207 42.777 C 161.322 42.667,161.917 42.222,162.530 41.788 C 163.142 41.355,163.743 40.907,163.867 40.792 C 163.990 40.677,164.427 40.323,164.837 40.005 C 167.631 37.838,171.667 33.309,171.667 32.341 C 171.667 32.245,171.723 32.167,171.793 32.167 C 171.862 32.167,172.019 31.923,172.143 31.625 C 172.266 31.327,172.466 30.858,172.588 30.583 C 172.955 29.754,173.293 28.640,173.499 27.583 C 173.606 27.033,173.762 26.269,173.847 25.885 C 174.088 24.786,174.032 20.892,173.758 19.667 C 173.361 17.896,172.915 16.378,172.509 15.417 C 169.762 8.923,166.196 5.879,158.417 3.384 C 153.953 1.953,152.617 1.754,149.250 2.021 M218.917 2.281 C 215.219 2.691,210.247 7.210,211.232 9.266 C 211.359 9.532,211.597 10.050,211.759 10.417 C 211.921 10.783,212.236 11.330,212.457 11.632 C 213.415 12.935,213.667 15.107,213.667 22.082 C 213.667 25.245,213.635 27.833,213.596 27.833 C 213.401 27.833,209.957 25.997,209.083 25.427 C 207.973 24.704,205.811 23.358,205.167 22.989 C 204.938 22.857,204.262 22.368,203.667 21.902 C 201.756 20.405,201.009 19.970,195.917 17.390 C 193.167 15.996,190.867 14.757,190.805 14.636 C 190.201 13.444,190.045 12.898,190.221 12.583 C 190.539 12.011,190.413 9.049,190.026 8.035 C 188.636 4.386,185.366 2.594,182.926 4.143 C 182.472 4.431,182.014 4.667,181.907 4.667 C 181.800 4.667,181.120 5.285,180.395 6.042 C 178.363 8.162,178.249 8.984,179.683 11.166 L 180.285 12.083 180.476 14.917 C 180.580 16.475,180.710 21.837,180.764 26.833 C 180.857 35.331,180.929 36.745,181.368 38.667 C 181.463 39.079,181.553 40.767,181.568 42.417 C 181.600 45.879,181.863 46.786,183.008 47.384 C 183.584 47.685,184.804 47.676,185.233 47.368 C 185.334 47.295,185.717 47.135,186.083 47.012 C 186.450 46.889,186.956 46.643,187.208 46.466 C 187.473 46.280,187.667 46.224,187.667 46.334 C 187.667 47.458,189.164 45.396,189.412 43.930 C 189.476 43.556,189.601 42.837,189.690 42.333 C 189.779 41.829,189.910 38.754,189.981 35.500 C 190.095 30.228,190.182 29.000,190.444 29.000 C 190.485 29.000,190.852 29.150,191.259 29.333 C 191.667 29.517,192.356 29.824,192.792 30.016 C 193.484 30.321,194.195 30.643,195.833 31.392 C 196.063 31.497,196.287 31.623,196.333 31.672 C 196.776 32.142,202.261 34.999,203.333 35.316 C 203.746 35.439,204.271 35.604,204.500 35.684 C 204.729 35.764,205.587 35.986,206.406 36.178 C 207.224 36.370,208.218 36.671,208.614 36.847 C 209.010 37.023,209.670 37.317,210.082 37.500 C 210.493 37.683,210.995 37.833,211.196 37.833 C 211.514 37.833,212.023 37.914,213.958 38.271 C 214.237 38.322,214.335 38.456,214.338 38.795 C 214.341 39.045,214.489 39.775,214.667 40.417 C 214.845 41.058,214.992 41.783,214.995 42.028 C 215.025 44.803,219.159 46.940,221.902 45.598 C 222.957 45.082,223.805 44.188,224.711 42.637 C 225.334 41.571,225.320 40.392,224.663 38.500 L 224.172 37.084 224.361 34.750 C 224.543 32.514,224.464 30.833,224.178 30.833 C 223.654 30.833,223.551 27.480,223.983 24.500 C 224.082 23.824,224.082 22.947,223.985 22.167 C 223.354 17.118,223.288 15.070,223.659 12.017 C 223.882 10.187,223.794 8.993,223.259 6.583 C 223.117 5.942,223.000 5.051,223.000 4.603 C 223.000 3.152,221.052 2.045,218.917 2.281 M281.417 2.343 C 277.874 2.895,273.249 5.191,272.372 6.834 C 271.917 7.687,271.909 7.607,272.458 7.717 C 273.230 7.871,274.251 8.740,274.681 9.606 L 275.083 10.417 275.113 21.250 C 275.129 27.208,275.162 32.871,275.188 33.833 C 275.219 35.047,275.166 35.707,275.013 35.985 C 274.589 36.758,274.333 38.586,274.333 40.836 L 274.333 43.088 274.958 43.363 C 275.302 43.514,275.854 43.888,276.185 44.195 C 276.516 44.501,276.966 44.837,277.185 44.942 C 278.831 45.729,279.993 46.111,281.170 46.252 C 282.062 46.359,282.252 46.326,285.435 45.511 C 288.285 44.782,289.745 42.573,288.368 41.071 C 288.207 40.894,287.892 40.487,287.670 40.167 C 287.448 39.846,287.219 39.546,287.162 39.500 C 287.105 39.454,286.877 39.079,286.654 38.667 C 286.432 38.254,286.194 37.892,286.125 37.861 C 286.056 37.831,286.000 37.698,286.000 37.567 C 286.000 37.436,285.932 37.199,285.850 37.039 C 285.237 35.862,285.231 35.494,285.702 28.917 C 286.007 24.651,285.984 20.704,285.644 19.250 C 285.384 18.134,285.385 18.064,285.686 17.641 C 285.859 17.398,286.000 17.115,286.000 17.014 C 286.000 16.912,286.068 16.699,286.150 16.539 C 287.057 14.795,286.939 4.750,285.993 3.195 C 285.414 2.243,283.886 1.959,281.417 2.343 M300.333 2.519 C 299.160 2.689,297.900 2.943,297.042 3.182 C 296.744 3.265,296.256 3.399,295.958 3.480 C 295.660 3.561,294.779 3.799,294.000 4.010 C 291.975 4.559,290.165 5.849,290.168 6.743 C 290.172 8.188,290.947 9.075,292.884 9.849 C 295.110 10.740,295.667 11.226,295.667 12.280 C 295.667 12.517,295.747 13.208,295.845 13.814 C 296.010 14.830,296.172 15.453,296.937 18.000 C 297.088 18.504,297.269 19.854,297.340 21.000 C 297.410 22.146,297.569 24.733,297.692 26.750 C 297.932 30.666,297.947 33.910,297.749 39.243 C 297.610 42.988,297.787 44.662,298.370 45.142 C 298.554 45.293,298.789 45.493,298.894 45.585 C 300.565 47.073,306.855 46.316,308.556 44.424 C 309.433 43.450,309.513 42.428,308.904 40.012 C 308.667 39.075,308.524 38.183,308.586 38.029 C 309.179 36.544,309.108 24.280,308.470 17.917 C 308.129 14.528,308.126 14.366,308.377 13.881 C 309.792 11.153,311.099 9.000,311.339 9.000 C 311.773 9.000,314.019 10.279,315.042 11.109 C 317.737 13.294,317.764 13.322,319.386 15.489 C 320.395 16.838,320.666 17.486,320.670 18.562 C 320.673 19.135,320.776 19.550,320.984 19.819 C 321.268 20.189,321.273 20.271,321.046 20.819 C 320.272 22.691,320.192 22.813,318.421 24.848 C 318.215 25.085,318.017 25.359,317.981 25.457 C 317.946 25.555,317.305 26.275,316.557 27.057 C 315.810 27.839,315.068 28.698,314.910 28.967 C 314.751 29.235,314.409 29.580,314.149 29.734 C 312.137 30.923,312.100 32.575,314.039 34.706 C 314.395 35.097,314.918 35.717,315.202 36.083 C 315.486 36.450,316.102 37.070,316.570 37.460 C 317.039 37.851,317.725 38.451,318.094 38.794 C 318.462 39.136,319.099 39.710,319.507 40.068 C 319.916 40.426,320.930 41.373,321.761 42.172 C 322.592 42.971,323.436 43.677,323.636 43.740 C 323.836 43.804,324.000 43.911,324.000 43.978 C 324.000 44.569,329.826 44.766,331.667 44.237 C 332.171 44.092,333.033 43.845,333.583 43.689 C 334.670 43.380,335.734 42.903,336.232 42.504 C 338.957 40.314,338.793 39.189,335.461 37.207 C 334.746 36.781,334.043 36.252,333.898 36.031 C 333.542 35.489,331.496 33.461,330.165 32.333 C 329.570 31.829,329.046 31.371,329.000 31.315 C 328.954 31.259,328.054 30.592,327.000 29.832 C 324.520 28.046,324.187 27.782,324.176 27.594 C 324.171 27.509,325.808 25.821,327.813 23.844 C 332.626 19.101,332.975 18.495,332.776 15.237 C 332.625 12.774,332.269 12.116,329.592 9.355 C 328.172 7.890,323.932 4.667,323.426 4.667 C 323.380 4.667,322.910 4.471,322.380 4.232 C 321.355 3.769,320.461 3.383,319.917 3.167 C 319.733 3.094,319.133 2.945,318.583 2.835 C 318.033 2.725,317.242 2.557,316.825 2.461 C 315.876 2.244,311.975 3.572,311.694 4.208 C 311.664 4.277,311.547 4.333,311.435 4.333 C 311.170 4.333,310.093 5.332,309.953 5.708 C 309.639 6.549,307.354 5.698,305.830 4.175 C 304.108 2.452,303.035 2.129,300.333 2.519 M76.500 3.196 C 74.204 3.576,71.775 4.172,71.127 4.514 C 70.968 4.598,70.761 4.667,70.667 4.667 C 70.073 4.667,67.785 6.033,66.875 6.932 C 66.359 7.441,66.333 7.526,66.333 8.725 L 66.333 9.984 67.042 10.477 C 69.048 11.872,70.214 13.550,70.766 15.833 C 71.138 17.369,71.070 21.065,70.647 22.347 C 70.273 23.483,70.275 24.138,70.666 27.542 C 70.758 28.344,70.904 29.619,70.991 30.375 C 71.078 31.131,71.240 32.537,71.353 33.500 C 71.643 35.995,71.561 37.919,70.667 49.500 C 70.586 50.554,70.435 52.917,70.332 54.750 C 70.229 56.583,70.094 58.560,70.031 59.143 L 69.917 60.204 69.053 58.560 C 68.579 57.656,67.679 55.891,67.053 54.637 C 65.839 52.203,65.704 52.080,65.366 53.096 C 65.246 53.456,64.740 54.587,64.241 55.609 C 62.877 58.404,63.345 59.433,65.486 58.340 C 66.251 57.950,66.333 58.008,66.333 58.938 C 66.333 64.793,63.170 68.888,55.958 72.369 C 55.340 72.667,54.833 72.950,54.833 72.998 C 54.833 73.045,59.240 73.060,64.625 73.033 C 71.914 72.995,74.757 73.036,75.750 73.192 C 76.695 73.342,79.849 73.410,86.583 73.426 C 91.967 73.439,97.094 73.531,98.417 73.639 C 103.716 74.069,107.492 73.271,112.623 70.637 C 114.193 69.832,118.387 67.196,118.667 66.840 C 118.712 66.782,119.013 66.554,119.333 66.333 C 119.654 66.113,119.954 65.891,120.000 65.840 C 120.046 65.790,120.363 65.540,120.705 65.285 C 121.563 64.646,123.175 63.037,123.663 62.333 C 123.885 62.012,124.109 61.712,124.159 61.667 C 124.422 61.428,125.413 59.629,126.327 57.728 C 127.804 54.658,127.953 54.326,128.189 53.583 C 128.306 53.217,128.461 52.845,128.534 52.758 C 128.607 52.671,128.667 52.287,128.667 51.904 C 128.667 51.522,128.816 50.618,128.997 49.896 C 129.590 47.546,129.361 44.316,128.357 40.833 C 128.264 40.512,128.072 39.781,127.929 39.208 C 127.540 37.642,127.004 36.921,124.969 35.227 C 124.286 34.659,122.031 33.167,121.855 33.167 C 121.767 33.167,121.669 33.102,121.639 33.023 C 121.592 32.901,120.333 32.248,115.500 29.835 C 114.878 29.524,112.790 29.167,111.599 29.167 C 109.539 29.167,109.554 26.953,111.630 24.750 C 111.975 24.383,112.516 23.746,112.833 23.333 C 113.149 22.921,113.451 22.546,113.504 22.500 C 113.556 22.454,113.780 22.154,114.000 21.833 C 114.220 21.512,114.445 21.212,114.500 21.167 C 114.645 21.044,116.333 17.436,116.333 17.248 C 116.333 17.014,117.498 15.331,118.003 14.833 C 118.329 14.512,118.930 13.838,119.337 13.333 C 119.745 12.829,120.118 12.379,120.167 12.333 C 120.215 12.287,120.591 11.838,121.002 11.333 C 121.412 10.829,121.955 10.192,122.207 9.917 C 123.252 8.776,122.529 7.886,119.750 6.893 C 118.558 6.467,114.508 6.479,113.083 6.913 C 112.309 7.149,111.199 7.247,108.167 7.347 C 106.013 7.418,103.837 7.560,103.333 7.663 C 99.841 8.370,97.346 8.022,93.750 6.325 C 92.650 5.806,91.356 5.296,90.875 5.191 C 89.919 4.982,88.772 4.750,87.542 4.516 C 85.604 4.147,84.710 3.965,84.167 3.828 C 83.846 3.747,83.208 3.606,82.750 3.516 C 82.292 3.425,81.517 3.272,81.029 3.176 C 79.989 2.970,77.803 2.980,76.500 3.196 M240.000 3.681 C 239.221 3.969,238.321 4.234,238.000 4.270 C 234.595 4.651,234.046 4.746,233.641 5.027 C 233.398 5.195,233.113 5.333,233.009 5.333 C 232.137 5.333,230.744 6.523,230.334 7.619 C 229.686 9.352,230.135 9.810,232.812 10.150 C 234.624 10.380,234.666 10.422,234.668 11.979 C 234.668 13.336,234.635 13.253,235.939 15.110 C 237.243 16.967,237.215 16.754,237.352 25.917 C 237.436 31.534,237.413 35.202,237.279 37.667 C 236.917 44.300,237.121 58.188,237.654 63.167 C 238.154 67.846,238.538 69.471,239.525 71.101 C 240.206 72.223,240.476 72.246,242.257 71.330 C 245.028 69.904,245.760 69.016,246.508 66.167 C 246.616 65.754,246.768 65.267,246.847 65.083 C 246.925 64.900,247.018 63.850,247.055 62.750 C 247.091 61.650,247.219 60.022,247.340 59.132 C 247.519 57.812,247.520 57.367,247.346 56.715 C 246.873 54.944,246.489 49.278,246.819 48.947 C 246.919 48.848,247.000 48.549,247.000 48.284 C 247.000 47.306,247.755 46.881,249.709 46.757 C 251.639 46.635,259.292 46.364,264.667 46.227 L 268.250 46.136 268.699 45.640 C 269.461 44.796,269.724 43.681,269.734 41.250 C 269.747 38.264,269.490 37.855,267.292 37.349 C 266.856 37.249,266.176 37.086,265.780 36.987 C 265.266 36.858,264.012 36.858,261.377 36.987 C 258.613 37.122,257.380 37.118,256.438 36.971 C 255.160 36.772,255.198 36.769,252.500 37.357 C 252.088 37.447,251.473 37.602,251.135 37.701 C 249.822 38.084,247.085 36.801,246.971 35.750 C 246.898 35.082,247.099 32.530,247.338 31.083 C 247.446 30.432,247.559 27.449,247.594 24.333 C 247.651 19.205,247.751 17.681,248.180 15.450 C 248.264 15.010,248.333 14.217,248.333 13.687 L 248.333 12.724 249.168 12.895 C 249.764 13.018,250.398 13.009,251.385 12.867 C 253.924 12.499,254.266 12.573,256.167 13.895 C 256.579 14.182,256.954 14.460,257.000 14.513 C 258.438 16.166,262.651 17.505,264.366 16.853 C 264.741 16.710,268.286 13.229,268.722 12.574 C 269.004 12.151,269.500 10.566,269.500 10.087 C 269.500 9.001,266.141 5.744,264.117 4.868 C 263.451 4.580,260.158 4.614,258.750 4.923 C 258.108 5.064,257.118 5.251,256.550 5.338 C 255.981 5.425,255.231 5.603,254.883 5.734 C 254.217 5.984,251.396 6.844,250.231 7.152 C 249.212 7.421,248.950 7.380,248.489 6.875 C 248.007 6.348,247.494 5.916,246.667 5.339 C 246.346 5.116,246.046 4.891,246.000 4.841 C 244.507 3.196,242.407 2.790,240.000 3.681 M38.567 9.960 C 32.783 21.326,31.616 23.597,31.474 23.775 C 31.376 23.898,31.431 24.168,31.629 24.525 C 31.891 25.000,32.312 26.021,32.821 27.417 C 34.058 30.811,36.311 30.296,35.900 26.712 C 35.703 24.991,35.749 19.445,35.961 19.374 C 36.052 19.344,36.087 18.992,36.040 18.577 C 35.854 16.923,37.283 13.130,39.053 10.583 C 39.244 10.308,39.442 10.046,39.492 10.000 C 39.542 9.954,40.136 9.295,40.811 8.535 L 42.039 7.153 41.645 6.410 C 41.013 5.219,40.931 5.314,38.567 9.960 M361.810 8.859 C 362.418 9.148,363.344 9.673,363.866 10.026 C 364.388 10.378,364.889 10.667,364.979 10.667 C 365.069 10.667,366.065 11.642,367.192 12.833 C 368.319 14.025,369.323 15.000,369.423 15.000 C 369.523 15.000,369.825 15.234,370.094 15.520 L 370.583 16.041 370.000 15.925 C 367.787 15.486,363.024 15.665,359.250 16.329 C 358.792 16.410,358.063 16.481,357.631 16.488 C 357.198 16.495,356.598 16.606,356.297 16.736 C 355.996 16.866,355.188 17.067,354.500 17.183 C 353.813 17.299,353.079 17.502,352.870 17.636 C 352.458 17.899,351.146 17.823,349.958 17.468 L 349.333 17.281 349.333 15.951 C 349.333 12.954,350.903 10.170,353.333 8.858 L 354.250 8.362 357.476 8.348 L 360.702 8.333 361.810 8.859 M149.000 9.948 C 153.161 11.716,157.177 14.439,158.608 16.463 C 160.077 18.543,160.273 18.899,162.561 23.667 C 162.847 24.262,163.126 24.787,163.182 24.833 C 164.865 26.222,164.719 30.828,162.884 34.250 C 162.786 34.433,162.631 34.771,162.539 35.000 C 161.935 36.514,161.709 36.907,161.142 37.419 C 160.327 38.155,159.725 38.397,158.083 38.644 C 157.350 38.755,156.244 38.930,155.625 39.033 C 154.447 39.229,153.991 39.153,152.417 38.495 C 152.050 38.341,151.337 38.045,150.833 37.836 C 149.558 37.308,149.097 37.098,149.000 37.000 C 148.954 36.954,148.718 36.814,148.476 36.689 C 147.549 36.212,144.723 33.219,144.457 32.433 C 144.261 31.853,143.740 31.044,143.319 30.664 C 142.936 30.319,142.362 29.307,141.097 26.750 C 139.700 23.926,139.485 23.275,138.810 19.833 C 138.712 19.329,138.564 18.699,138.482 18.433 C 138.007 16.888,139.081 14.792,141.750 12.058 C 143.521 10.244,144.026 9.978,145.945 9.850 C 146.786 9.795,147.521 9.701,147.580 9.643 C 147.712 9.511,148.237 9.623,149.000 9.948 M44.000 13.195 C 44.000 14.851,44.118 15.736,44.613 17.778 C 44.870 18.840,45.987 19.175,46.466 18.334 C 46.955 17.475,47.046 17.788,47.237 21.000 C 47.273 21.596,47.384 22.294,47.484 22.553 C 47.585 22.811,47.668 23.111,47.670 23.219 C 47.672 23.328,47.821 23.604,48.000 23.833 C 48.179 24.063,48.328 24.330,48.330 24.427 C 48.332 24.524,48.466 24.749,48.627 24.927 C 48.789 25.105,49.207 25.601,49.555 26.031 C 50.204 26.830,50.847 27.124,51.496 26.918 C 52.351 26.647,52.168 26.164,48.866 20.000 C 48.343 19.023,46.587 15.650,45.012 12.597 C 44.128 10.884,44.000 10.959,44.000 13.195 M104.500 12.838 C 106.722 13.404,107.791 14.516,108.651 17.153 C 109.274 19.062,109.206 19.380,107.561 22.217 C 107.252 22.749,107.000 23.248,107.000 23.327 C 107.000 23.405,106.855 23.757,106.677 24.109 C 106.499 24.462,106.032 25.424,105.640 26.249 C 104.761 28.092,103.396 29.541,101.714 30.415 C 101.092 30.738,100.499 31.117,100.395 31.256 C 100.148 31.587,98.259 32.500,97.820 32.500 C 96.894 32.500,96.187 33.276,94.987 35.609 C 93.951 37.623,94.114 38.206,95.845 38.664 C 96.916 38.948,97.691 39.138,98.178 39.237 C 98.413 39.285,98.781 39.476,98.995 39.662 C 99.209 39.848,99.443 40.000,99.514 40.000 C 99.585 40.000,99.742 40.098,99.863 40.217 C 99.984 40.337,100.571 40.763,101.167 41.163 C 101.763 41.564,102.287 41.937,102.333 41.992 C 102.379 42.047,102.754 42.351,103.167 42.667 C 103.579 42.983,103.954 43.283,104.000 43.333 C 104.046 43.384,104.421 43.683,104.833 43.999 C 105.819 44.752,109.448 48.378,110.173 49.333 C 110.485 49.746,110.785 50.121,110.838 50.167 C 110.891 50.212,111.324 50.850,111.801 51.583 C 112.279 52.317,112.743 53.007,112.834 53.118 C 112.926 53.229,113.000 53.357,113.000 53.402 C 113.000 53.448,113.238 53.882,113.528 54.368 C 115.703 58.005,115.869 58.656,114.922 59.847 C 114.600 60.252,114.336 60.725,114.335 60.899 C 114.331 61.674,113.228 64.908,112.595 66.000 C 111.786 67.396,110.737 67.785,109.000 67.332 C 107.845 67.030,105.935 66.722,103.917 66.512 C 98.925 65.993,96.783 65.715,95.250 65.391 C 94.608 65.255,93.777 65.079,93.402 64.999 C 92.708 64.851,90.553 64.048,90.250 63.825 C 90.158 63.757,89.783 63.537,89.417 63.334 C 87.075 62.041,86.381 60.917,85.971 57.750 C 85.888 57.108,85.748 56.021,85.660 55.333 C 85.414 53.403,85.130 43.343,85.253 40.917 C 85.380 38.433,85.622 36.842,86.419 33.250 C 86.637 32.268,86.671 30.857,86.631 24.333 C 86.584 16.730,86.590 16.569,86.937 15.833 C 87.772 14.063,89.584 13.279,94.417 12.598 C 95.445 12.453,103.767 12.651,104.500 12.838 M26.952 32.708 C 25.963 34.656,24.837 36.850,24.449 37.583 C 22.721 40.850,22.977 44.668,24.838 43.382 C 25.877 42.663,26.272 41.780,27.095 38.333 C 27.237 37.737,27.468 36.800,27.609 36.250 C 28.960 30.967,29.282 29.167,28.874 29.167 C 28.805 29.167,27.940 30.760,26.952 32.708 M16.667 52.800 C 16.667 52.965,16.595 53.171,16.508 53.258 C 16.421 53.345,15.631 54.834,14.752 56.567 C 13.872 58.299,12.264 61.449,11.177 63.567 C 7.396 70.933,6.333 73.044,6.333 73.184 C 6.333 73.262,12.071 73.309,19.083 73.288 C 26.095 73.267,31.833 73.192,31.833 73.121 C 31.833 73.051,31.627 72.910,31.375 72.809 C 31.123 72.708,30.767 72.562,30.583 72.484 C 30.400 72.406,29.425 71.997,28.417 71.575 C 26.098 70.603,24.811 69.987,24.530 69.714 C 24.409 69.596,24.251 69.500,24.180 69.500 C 24.109 69.500,23.897 69.369,23.708 69.208 C 23.519 69.048,22.685 68.467,21.853 67.917 C 20.937 67.311,20.372 66.831,20.419 66.700 C 20.461 66.580,20.424 66.527,20.337 66.581 C 20.153 66.695,17.667 64.315,17.667 64.025 C 17.667 63.920,17.593 63.833,17.503 63.833 C 17.327 63.833,16.599 62.513,16.712 62.399 C 16.750 62.361,17.172 62.493,17.650 62.691 C 19.293 63.374,20.285 62.305,19.365 60.846 C 19.117 60.451,17.710 58.693,17.488 58.500 C 17.233 58.279,16.976 56.763,17.026 55.788 C 17.058 55.188,17.044 54.722,16.995 54.752 C 16.947 54.783,16.937 54.288,16.972 53.654 C 17.016 52.879,16.977 52.500,16.852 52.500 C 16.750 52.500,16.667 52.635,16.667 52.800 M133.648 53.774 C 133.277 53.877,132.442 55.106,132.179 55.934 C 131.704 57.433,132.561 57.857,133.522 56.599 C 134.109 55.831,134.494 55.680,136.105 55.585 L 136.794 55.544 136.728 58.064 C 136.578 63.792,136.548 64.000,135.887 64.000 C 135.362 64.000,135.000 64.363,135.000 64.888 C 135.000 65.436,135.921 65.637,138.458 65.646 L 140.333 65.652 140.333 65.171 C 140.333 64.700,140.074 64.318,139.558 64.029 C 139.250 63.857,139.103 60.495,139.224 56.375 L 139.250 55.500 140.000 55.501 C 141.005 55.502,141.884 55.763,142.251 56.168 C 142.860 56.840,143.467 56.388,143.715 55.075 C 143.895 54.124,143.852 54.112,139.972 54.049 C 138.016 54.017,136.192 53.926,135.917 53.847 C 135.382 53.692,134.091 53.651,133.648 53.774 M145.542 54.058 C 145.244 54.156,145.000 54.295,145.000 54.368 C 145.000 54.441,144.865 54.500,144.700 54.500 C 144.289 54.500,144.000 54.824,144.000 55.283 C 144.000 55.576,144.094 55.667,144.395 55.667 C 145.146 55.667,145.357 63.396,144.633 64.401 C 144.121 65.113,144.380 65.391,145.684 65.529 C 147.294 65.700,148.030 65.019,147.000 64.312 C 146.442 63.929,146.459 60.077,147.020 59.645 C 147.606 59.195,148.667 59.265,148.667 59.754 C 148.667 59.874,148.736 59.997,148.821 60.028 C 148.906 60.058,149.000 61.021,149.030 62.167 L 149.083 64.250 148.542 64.488 C 147.538 64.930,147.904 65.500,149.191 65.500 C 149.556 65.500,149.990 65.572,150.154 65.660 C 151.085 66.158,152.194 64.978,151.408 64.326 C 150.933 63.932,150.820 63.510,150.659 61.539 C 150.420 58.602,150.421 58.605,149.706 58.251 C 148.997 57.899,148.767 57.909,147.518 58.344 L 146.620 58.658 146.738 56.485 C 146.885 53.780,146.816 53.640,145.542 54.058 M162.734 54.256 C 162.564 54.933,162.767 55.222,163.334 55.108 C 164.323 54.910,164.312 54.871,164.224 58.554 C 164.095 63.994,164.046 64.267,163.196 64.365 C 162.556 64.439,162.503 65.051,163.102 65.444 C 163.435 65.662,163.576 65.688,163.626 65.538 C 163.713 65.277,166.047 65.258,166.526 65.514 C 167.049 65.794,167.667 65.569,167.667 65.098 C 167.667 64.684,167.391 64.500,166.770 64.500 C 166.086 64.500,166.000 64.219,166.000 61.977 C 166.000 59.753,166.074 59.528,166.702 59.854 C 166.912 59.963,167.196 60.103,167.333 60.166 C 167.471 60.229,167.689 60.499,167.818 60.765 C 167.946 61.032,168.115 61.275,168.193 61.306 C 168.270 61.336,168.333 61.505,168.333 61.681 C 168.333 61.856,168.400 62.000,168.481 62.000 C 168.563 62.000,168.678 62.259,168.738 62.576 C 168.797 62.893,169.012 63.351,169.215 63.595 C 170.442 65.068,170.519 65.104,172.792 65.277 L 174.000 65.370 174.000 64.858 C 174.000 64.396,173.930 64.328,173.292 64.158 C 172.305 63.896,170.500 61.844,170.500 60.983 C 170.500 60.850,170.237 60.492,169.917 60.190 C 169.173 59.489,169.172 59.495,170.205 59.000 C 171.291 58.480,171.638 57.908,171.654 56.614 C 171.683 54.349,171.061 54.056,165.960 53.925 L 162.837 53.846 162.734 54.256 M181.468 54.136 C 180.841 54.516,180.778 54.932,181.286 55.332 C 181.705 55.662,181.708 55.680,181.681 58.068 C 181.667 59.391,181.714 60.509,181.786 60.553 C 182.164 60.786,181.821 64.513,181.406 64.671 C 181.125 64.778,181.000 64.953,181.000 65.242 L 181.000 65.660 182.599 65.580 C 184.648 65.478,184.991 65.246,184.116 64.554 C 183.370 63.964,183.390 64.115,183.346 58.511 C 183.308 53.583,183.117 53.137,181.468 54.136 M198.146 54.352 L 197.591 54.871 198.084 55.264 L 198.577 55.657 198.600 58.037 C 198.613 59.346,198.642 60.492,198.665 60.583 C 198.907 61.557,198.635 64.602,198.292 64.752 C 198.083 64.844,197.917 65.064,197.917 65.250 C 197.917 65.594,198.151 65.616,200.792 65.520 C 201.500 65.494,201.516 65.042,200.833 64.359 C 200.379 63.905,200.332 63.755,200.321 62.721 C 200.315 62.095,200.281 60.158,200.246 58.417 C 200.211 56.675,200.181 55.010,200.179 54.717 C 200.173 53.725,199.036 53.521,198.146 54.352 M258.883 54.401 C 258.590 54.508,258.296 54.649,258.230 54.714 C 258.165 54.780,257.992 54.834,257.847 54.835 C 257.498 54.836,255.667 56.299,255.667 56.576 C 255.667 56.695,255.549 56.890,255.405 57.010 C 255.261 57.129,255.179 57.363,255.223 57.530 C 255.266 57.697,255.234 57.833,255.151 57.833 C 255.068 57.833,255.000 58.006,255.000 58.217 C 255.000 58.427,254.929 58.671,254.842 58.758 C 254.141 59.462,254.739 62.600,255.833 63.951 C 257.190 65.628,258.294 66.000,261.921 66.000 C 265.256 66.000,265.084 66.133,264.925 63.683 C 264.757 61.083,264.880 60.444,265.598 60.184 C 266.062 60.016,266.167 59.892,266.167 59.510 C 266.167 58.812,265.806 58.590,265.336 58.998 C 265.108 59.195,264.813 59.295,264.602 59.245 C 262.326 58.709,260.364 59.329,261.952 60.083 L 262.655 60.417 262.661 62.264 C 262.664 63.280,262.610 64.167,262.542 64.236 C 262.473 64.305,262.417 64.449,262.417 64.556 C 262.417 65.271,259.344 64.790,258.533 63.947 C 257.394 62.764,256.405 59.667,257.167 59.667 C 257.258 59.667,257.333 59.329,257.333 58.917 C 257.333 58.504,257.408 58.167,257.500 58.167 C 257.592 58.167,257.667 58.008,257.667 57.815 C 257.667 56.663,261.201 54.779,261.737 55.645 C 261.786 55.725,262.056 55.836,262.338 55.893 C 263.093 56.044,263.935 56.761,264.234 57.509 C 264.438 58.017,264.587 58.167,264.895 58.167 C 265.483 58.167,265.713 57.810,265.495 57.236 C 265.396 56.977,265.314 56.326,265.311 55.789 C 265.306 54.665,265.121 54.499,264.323 54.897 C 263.835 55.140,263.752 55.135,263.108 54.820 C 262.021 54.289,259.797 54.068,258.883 54.401 M168.035 55.102 C 170.684 56.472,169.928 59.118,166.957 58.871 C 165.968 58.789,165.855 58.712,166.207 58.360 C 166.339 58.228,166.354 58.110,166.249 58.035 C 166.055 57.896,166.028 57.253,166.208 57.071 C 166.277 57.001,166.333 56.559,166.333 56.089 C 166.333 54.827,166.885 54.507,168.035 55.102 M215.934 55.097 C 215.700 55.709,216.210 56.500,216.839 56.500 C 217.173 56.500,217.667 55.986,217.667 55.638 C 217.667 54.970,216.163 54.501,215.934 55.097 M153.563 58.669 C 152.629 59.111,152.053 60.279,151.930 61.982 C 151.841 63.198,152.126 64.333,152.519 64.333 C 152.600 64.333,152.667 64.442,152.667 64.575 C 152.667 65.585,155.170 66.033,156.537 65.268 C 157.613 64.665,157.546 63.440,156.469 64.017 C 155.967 64.285,154.771 64.055,154.395 63.618 C 152.761 61.722,152.889 61.429,155.375 61.370 L 157.333 61.323 157.333 60.687 C 157.333 58.762,155.471 57.765,153.563 58.669 M176.429 58.581 C 176.068 58.710,175.708 58.932,175.628 59.076 C 175.547 59.219,175.303 59.516,175.084 59.734 C 174.410 60.408,174.093 61.821,174.407 62.748 C 174.550 63.168,174.667 63.622,174.667 63.756 C 174.667 63.890,174.723 64.000,174.793 64.000 C 174.862 64.000,175.018 64.225,175.140 64.500 C 175.262 64.775,175.453 65.000,175.566 65.000 C 175.678 65.000,175.931 65.150,176.128 65.333 C 176.425 65.610,176.716 65.667,177.840 65.667 L 179.193 65.667 179.930 64.930 C 180.335 64.525,180.667 64.075,180.667 63.930 C 180.667 63.785,180.742 63.667,180.833 63.667 C 180.929 63.667,181.000 63.168,181.000 62.505 C 181.000 59.558,178.855 57.717,176.429 58.581 M186.628 58.641 C 185.281 59.238,184.328 62.981,185.261 64.012 C 185.422 64.190,185.637 64.504,185.738 64.709 C 185.840 64.915,186.090 65.157,186.295 65.248 C 186.499 65.338,186.667 65.470,186.667 65.540 C 186.667 65.885,188.899 65.660,189.610 65.243 C 190.660 64.628,190.521 63.454,189.465 64.019 C 188.728 64.413,187.390 63.894,186.963 63.048 C 186.834 62.792,186.627 62.425,186.504 62.230 C 186.025 61.474,186.325 61.333,188.411 61.333 L 190.333 61.333 190.333 60.658 C 190.333 58.741,188.569 57.781,186.628 58.641 M192.083 58.456 C 191.070 58.602,190.673 59.418,191.375 59.910 C 191.756 60.177,191.881 65.185,191.546 66.750 C 191.387 67.492,191.386 67.500,191.359 68.625 C 191.334 69.656,191.328 69.667,190.854 69.667 C 190.281 69.667,189.787 70.520,190.150 70.883 C 190.349 71.082,192.715 71.178,193.792 71.031 C 194.522 70.930,194.549 70.313,193.841 69.895 C 193.298 69.574,193.187 68.919,193.305 66.721 L 193.361 65.692 194.445 65.698 C 195.631 65.705,196.846 65.226,197.260 64.588 C 197.554 64.135,198.034 62.691,197.942 62.538 C 197.901 62.471,197.821 61.918,197.763 61.308 C 197.571 59.290,196.821 58.450,195.222 58.465 C 194.641 58.470,194.202 58.567,194.022 58.730 C 193.765 58.963,193.719 58.956,193.535 58.660 C 193.334 58.339,193.108 58.307,192.083 58.456 M203.629 58.562 C 202.103 59.239,201.273 61.167,202.508 61.167 C 203.048 61.167,203.500 60.784,203.500 60.327 C 203.500 59.830,204.074 59.610,204.628 59.897 C 205.497 60.346,205.239 62.000,204.301 62.000 C 202.373 62.000,201.329 63.095,201.862 64.557 C 202.170 65.404,203.243 65.909,203.881 65.507 C 204.890 64.871,205.036 64.837,205.432 65.149 C 206.096 65.671,207.243 65.595,207.666 65.001 C 208.231 64.208,208.070 63.741,207.250 63.790 L 206.583 63.830 206.642 61.756 C 206.695 59.880,206.668 59.637,206.360 59.204 C 205.827 58.455,204.547 58.155,203.629 58.562 M207.830 58.621 C 207.369 58.944,207.418 59.289,208.000 59.833 C 208.275 60.090,208.500 60.351,208.500 60.414 C 208.500 60.476,208.762 61.050,209.083 61.689 C 209.404 62.329,209.667 62.960,209.667 63.093 C 209.667 63.225,209.742 63.333,209.833 63.333 C 209.925 63.333,210.000 63.525,210.000 63.758 C 210.000 63.992,210.116 64.407,210.257 64.680 C 210.509 65.168,210.241 66.106,209.792 66.306 C 209.723 66.336,209.667 66.459,209.667 66.578 C 209.667 67.296,208.589 68.458,207.996 68.378 C 207.264 68.280,206.956 68.593,207.030 69.359 C 207.143 70.519,209.285 70.438,209.941 69.250 C 210.143 68.883,210.372 68.508,210.451 68.417 C 210.703 68.121,211.583 66.589,211.599 66.417 C 211.608 66.325,211.775 65.912,211.971 65.500 C 212.166 65.087,212.328 64.631,212.330 64.486 C 212.332 64.341,212.388 64.167,212.456 64.100 C 212.523 64.032,212.702 63.551,212.854 63.030 C 213.399 61.153,213.868 60.074,214.362 59.559 C 215.324 58.556,214.107 58.084,211.864 58.591 C 211.318 58.715,211.407 59.558,211.974 59.639 C 212.293 59.684,212.343 59.761,212.247 60.055 C 212.182 60.254,212.092 60.698,212.047 61.042 C 212.002 61.385,211.903 61.667,211.827 61.667 C 211.751 61.667,211.661 61.873,211.627 62.125 L 211.564 62.583 211.383 62.160 C 211.283 61.927,211.085 61.640,210.943 61.522 C 210.584 61.224,210.248 59.554,210.489 59.264 C 210.909 58.757,208.476 58.169,207.830 58.621 M222.157 58.493 C 221.922 58.563,221.578 58.703,221.391 58.802 C 221.130 58.942,220.967 58.925,220.688 58.730 C 220.254 58.425,219.474 58.549,218.792 59.032 C 218.250 59.415,218.204 59.833,218.667 60.167 C 219.050 60.443,219.189 64.243,218.820 64.365 C 218.721 64.398,218.628 64.686,218.612 65.004 L 218.583 65.583 219.554 65.634 C 221.134 65.716,222.201 64.925,221.083 64.500 C 220.673 64.344,220.667 64.314,220.667 62.452 L 220.667 60.563 221.158 60.200 C 221.640 59.843,221.856 59.843,222.603 60.198 C 223.265 60.513,223.301 64.382,222.644 64.554 C 222.292 64.646,222.228 65.210,222.542 65.455 C 223.624 66.298,226.353 65.294,225.305 64.438 C 224.871 64.084,224.871 64.079,224.944 62.039 C 225.012 60.160,224.990 59.954,224.667 59.501 C 224.134 58.752,222.919 58.265,222.157 58.493 M228.148 58.695 C 227.021 58.996,226.386 59.888,226.255 61.355 L 226.142 62.627 226.696 63.146 C 227.001 63.431,227.336 63.665,227.441 63.666 C 227.545 63.666,227.674 63.779,227.727 63.917 C 227.802 64.112,227.684 64.167,227.187 64.167 C 225.952 64.167,225.362 66.362,226.474 66.823 L 226.948 67.019 226.400 67.566 C 224.999 68.968,225.955 70.751,228.317 71.141 C 232.223 71.786,233.822 70.629,232.928 67.802 C 232.393 66.112,231.083 65.548,228.574 65.927 C 227.331 66.114,227.095 65.064,228.323 64.813 C 228.621 64.752,228.947 64.619,229.049 64.518 C 229.150 64.416,229.370 64.333,229.536 64.333 C 231.179 64.333,232.099 63.314,232.044 61.555 C 232.017 60.688,232.065 60.326,232.211 60.308 C 232.324 60.294,232.492 60.272,232.583 60.260 C 233.103 60.190,233.356 59.866,233.304 59.336 C 233.225 58.528,232.807 58.336,232.038 58.755 C 231.437 59.082,231.393 59.084,230.667 58.806 C 229.835 58.487,229.056 58.453,228.148 58.695 M273.417 58.833 C 273.360 58.925,273.142 59.000,272.933 59.000 C 272.245 59.000,271.915 59.560,272.147 60.334 C 272.257 60.700,272.419 61.000,272.507 61.000 C 272.701 61.000,272.582 63.818,272.379 64.021 C 272.302 64.098,272.010 64.206,271.729 64.262 L 271.219 64.364 271.235 62.217 C 271.252 59.758,271.100 59.335,270.070 58.996 C 268.463 58.465,266.233 59.914,266.573 61.268 C 266.736 61.919,267.998 61.778,268.003 61.107 C 268.007 60.421,268.303 60.237,269.292 60.307 C 269.635 60.331,269.667 60.416,269.667 61.322 L 269.667 62.311 268.375 62.587 C 266.527 62.982,265.850 63.947,266.527 65.219 C 266.973 66.057,268.214 66.281,269.000 65.667 C 269.521 65.259,269.602 65.258,270.111 65.658 C 270.517 65.978,271.773 66.084,274.313 66.014 C 275.489 65.981,275.632 65.702,274.883 64.899 C 274.376 64.357,274.074 61.526,274.480 61.120 C 274.582 61.018,274.667 60.806,274.667 60.651 C 274.667 60.082,275.736 59.994,276.391 60.509 C 276.781 60.816,276.819 60.942,276.756 61.704 C 276.717 62.173,276.756 62.689,276.843 62.851 C 276.946 63.043,276.941 63.184,276.829 63.252 C 276.735 63.311,276.669 63.447,276.682 63.554 C 276.779 64.339,276.643 64.871,276.324 64.954 C 276.070 65.021,275.995 65.156,276.033 65.480 C 276.083 65.914,276.093 65.917,277.708 65.964 C 279.451 66.016,279.764 65.830,279.021 65.185 C 278.701 64.907,278.597 64.376,278.397 61.996 C 278.278 60.584,278.362 60.430,279.333 60.292 C 280.045 60.191,280.667 60.403,280.667 60.746 C 280.667 60.886,280.742 61.000,280.833 61.000 C 280.935 61.000,281.000 61.771,281.000 62.980 L 281.000 64.960 280.492 65.170 C 279.662 65.514,279.913 65.907,281.002 65.968 C 281.505 65.996,281.988 66.090,282.075 66.176 C 282.162 66.263,282.528 66.333,282.887 66.333 C 283.595 66.333,283.697 65.680,283.094 65.011 C 282.929 64.828,282.824 64.041,282.739 62.364 C 282.621 60.016,282.611 59.970,282.130 59.489 C 281.468 58.827,280.054 58.790,278.950 59.407 L 278.221 59.814 277.855 59.449 C 277.527 59.122,277.320 59.085,275.917 59.095 C 274.761 59.103,274.324 59.048,274.262 58.887 C 274.163 58.629,273.566 58.591,273.417 58.833 M285.778 59.069 C 284.254 60.006,283.390 63.180,284.333 64.379 C 284.517 64.612,284.667 64.881,284.667 64.976 C 284.667 66.325,288.633 66.476,289.341 65.153 C 289.671 64.535,288.936 63.929,288.572 64.519 C 288.445 64.724,287.521 64.640,286.805 64.359 C 286.256 64.144,285.436 62.613,285.574 62.061 C 285.665 61.701,285.723 61.690,287.332 61.751 C 289.566 61.835,289.861 61.562,289.173 60.045 C 288.569 58.714,287.061 58.281,285.778 59.069 M215.215 59.386 C 214.594 59.808,214.455 60.572,214.974 60.708 C 215.648 60.884,215.597 63.991,214.909 64.632 C 214.260 65.237,214.637 65.969,215.485 65.751 C 215.722 65.690,216.241 65.649,216.637 65.661 C 218.021 65.701,218.357 65.319,217.625 64.539 C 217.270 64.161,217.250 64.004,217.250 61.611 L 217.250 59.083 216.500 59.053 C 215.967 59.032,215.595 59.128,215.215 59.386 M155.011 59.506 C 155.724 59.887,155.234 60.405,154.332 60.225 C 153.777 60.114,153.679 59.773,154.125 59.513 C 154.498 59.296,154.617 59.295,155.011 59.506 M188.165 59.581 C 188.546 60.041,188.242 60.362,187.544 60.236 C 186.740 60.090,186.721 60.067,187.082 59.668 C 187.441 59.272,187.879 59.237,188.165 59.581 M178.131 59.956 C 179.380 60.755,179.509 63.068,178.368 64.209 C 177.767 64.810,177.185 64.609,176.447 63.544 C 175.214 61.764,176.539 58.938,178.131 59.956 M229.729 60.052 C 231.039 61.100,230.171 63.769,228.741 63.090 C 227.812 62.649,227.786 61.069,228.692 60.104 C 229.177 59.587,229.150 59.588,229.729 60.052 M287.238 60.095 C 287.665 60.522,287.544 60.667,286.760 60.667 C 285.923 60.667,285.708 60.483,286.094 60.097 C 286.430 59.761,286.903 59.760,287.238 60.095 M195.500 60.392 C 197.317 62.053,195.641 65.958,193.750 64.470 C 193.253 64.079,193.190 61.638,193.647 60.458 C 193.883 59.851,194.870 59.816,195.500 60.392 M205.000 63.223 C 205.000 64.016,204.129 64.438,203.595 63.905 C 203.218 63.527,203.266 63.369,203.875 62.998 C 204.696 62.498,205.000 62.559,205.000 63.223 M269.667 63.730 C 269.667 64.681,268.209 65.017,268.029 64.107 C 267.937 63.638,268.513 63.243,269.375 63.186 C 269.599 63.171,269.667 63.297,269.667 63.730 M231.132 67.850 C 231.324 67.970,231.525 68.244,231.579 68.458 C 231.743 69.111,231.434 69.284,229.526 69.611 C 228.161 69.845,227.034 68.462,228.025 67.768 C 228.428 67.486,230.642 67.545,231.132 67.850 " stroke="none" fill="#232424" fill-rule="evenodd"></path></g></svg>